<?xml version="1.0" standalone="no"?>
<!DOCTYPE svg PUBLIC "-//W3C//DTD SVG 20010904//EN"
 "http://www.w3.org/TR/2001/REC-SVG-20010904/DTD/svg10.dtd">
<svg version="1.0" xmlns="http://www.w3.org/2000/svg"
 width="512.000000pt" height="512.000000pt" viewBox="0 0 512.000000 512.000000"
 preserveAspectRatio="xMidYMid meet">
<metadata>
Created by potrace 1.14, written by Peter Selinger 2001-2017
</metadata>
<g transform="translate(0.000000,512.000000) scale(0.100000,-0.100000)"
fill="#000000" stroke="none">
<path d="M133 5109 c-44 -13 -110 -81 -123 -127 -6 -25 -10 -520 -10 -1474 l0
-1438 2560 0 2560 0 0 1448 -1 1447 -23 45 c-13 26 -41 58 -65 75 l-43 30
-2411 2 c-1479 1 -2425 -2 -2444 -8z m897 -796 c113 -31 215 -108 276 -210 30
-50 40 -75 62 -153 8 -31 8 -667 -1 -710 -13 -64 -71 -178 -115 -225 -182
-197 -483 -209 -678 -28 -52 48 -105 132 -130 203 -17 50 -19 87 -19 405 0
344 0 351 24 415 31 83 58 126 121 189 61 61 173 118 250 127 30 3 56 7 58 9
6 6 103 -8 152 -22z m2455 -8 c144 -50 271 -191 306 -342 12 -51 17 -638 6
-705 -31 -184 -164 -331 -347 -382 -253 -71 -517 82 -585 340 -12 48 -15 121
-15 389 1 312 2 333 23 395 87 259 356 393 612 305z m-1258 -21 c15 -12 37
-36 47 -54 19 -32 20 -59 20 -624 1 -425 -2 -600 -11 -624 -34 -99 -153 -132
-234 -65 -17 14 -36 38 -42 52 -7 18 -12 187 -13 526 -1 275 -3 503 -3 508 -1
4 -26 7 -56 7 -31 0 -70 6 -88 14 -40 16 -83 66 -92 105 -13 61 31 147 90 172
11 5 95 7 187 6 152 -2 169 -4 195 -23z m2398 1 c76 -44 73 -23 73 -693 0
-567 -1 -593 -20 -631 -38 -77 -145 -103 -216 -52 -65 46 -65 41 -65 598 l0
503 -61 0 c-36 1 -75 8 -96 18 -107 53 -107 211 0 264 29 15 62 18 189 18 146
0 156 -1 196 -25z"/>
<path d="M863 4029 c-44 -9 -76 -31 -110 -76 l-28 -36 -1 -311 c-2 -281 0
-314 16 -346 39 -76 117 -115 198 -98 53 11 116 69 129 118 5 19 9 168 8 330
-1 258 -3 299 -18 327 -35 65 -123 107 -194 92z"/>
<path d="M3305 4030 c-67 -10 -109 -41 -141 -103 -12 -23 -14 -83 -12 -341 l3
-313 25 -36 c77 -113 240 -103 302 18 20 38 21 57 21 341 -1 285 -2 302 -22
341 -34 68 -103 104 -176 93z"/>
<path d="M2 1563 c3 -206 3 -208 30 -249 15 -23 44 -52 65 -65 l38 -24 2410
-3 c2266 -2 2412 -1 2450 15 50 22 102 77 115 123 5 19 10 119 10 223 l0 187
-2561 0 -2560 0 3 -207z"/>
<path d="M2184 883 c-3 -21 -12 -69 -20 -108 -7 -38 -16 -83 -18 -100 -3 -16
-19 -104 -36 -195 -16 -91 -30 -168 -30 -172 0 -5 -175 -8 -390 -8 -288 0
-396 -3 -417 -12 -117 -52 -124 -208 -13 -266 l44 -22 1259 0 1259 0 40 22
c83 47 103 155 42 224 -48 53 -53 54 -473 54 l-389 0 -7 43 c-9 50 -12 66 -24
132 -6 28 -12 64 -15 80 -3 17 -12 67 -20 113 -18 94 -46 246 -46 250 0 1
-166 2 -370 2 l-369 0 -7 -37z"/>
</g>
</svg>
